<svg width="170" height="33" viewBox="0 0 170 33" fill="none" xmlns="http://www.w3.org/2000/svg">
<path d="M13.8469 21.8717H23.4472V23.2334H13.8469V21.8717Z" fill="url(#paint0_linear)"/>
<path d="M6.98965 12.34H23.4472V13.7017H6.98965V12.34Z" fill="url(#paint1_linear)"/>
<path d="M11.7898 4.16994H23.4472V5.53161H11.7898V4.16994Z" fill="url(#paint2_linear)"/>
<path d="M67.4741 10.7559L60.9737 6.40661L49.2689 23.6518L47.9218 22.7505L59.6266 5.50526L53.087 1.12977L53.8538 0L68.2409 9.62608L67.4741 10.7559Z" fill="url(#paint3_linear)"/>
<path d="M5.48858 12.0214C6.47695 12.0214 7.36017 11.9065 8.13824 11.6769C8.92683 11.4367 9.58925 11.0975 10.1255 10.659C10.6722 10.2205 11.0876 9.69335 11.3715 9.07741C11.6554 8.46148 11.7973 7.76726 11.7973 6.99473C11.7973 5.41837 11.2768 4.24914 10.2359 3.48706C9.20547 2.72497 7.69663 2.34393 5.70939 2.34393H1.62449V12.0214H5.48858ZM15.3933 23.2334H14.0053C13.8266 23.2334 13.6741 23.2073 13.548 23.1551C13.4323 23.0925 13.3219 22.9828 13.2168 22.8262L6.05637 13.8378C5.97225 13.723 5.88288 13.6238 5.78825 13.5403C5.70413 13.4568 5.60424 13.3942 5.48858 13.3524C5.38344 13.3002 5.25201 13.2637 5.09429 13.2428C4.94708 13.2219 4.76308 13.2115 4.54228 13.2115H1.62449V23.2334H0V1.07553H5.70939C8.27493 1.07553 10.1938 1.57141 11.4661 2.56316C12.7489 3.54448 13.3903 4.99035 13.3903 6.90078C13.3903 7.74638 13.243 8.5189 12.9486 9.21835C12.6542 9.9178 12.2284 10.5337 11.6711 11.0661C11.1244 11.5881 10.4567 12.0161 9.66811 12.3502C8.89003 12.6843 8.01207 12.9087 7.03422 13.0235C7.28657 13.1801 7.51263 13.3889 7.7124 13.6499L15.3933 23.2334Z" fill="url(#paint4_linear)"/>
<path d="M84.3475 12.0214C85.3359 12.0214 86.2191 11.9065 86.9972 11.6769C87.7858 11.4367 88.4482 11.0975 88.9844 10.659C89.5312 10.2205 89.9465 9.69335 90.2304 9.07741C90.5143 8.46148 90.6562 7.76726 90.6562 6.99473C90.6562 5.41837 90.1358 4.24914 89.0948 3.48706C88.0644 2.72497 86.5556 2.34393 84.5683 2.34393H80.4834V12.0214H84.3475ZM94.2522 23.2334H92.8643C92.6855 23.2334 92.5331 23.2073 92.4069 23.1551C92.2913 23.0925 92.1809 22.9828 92.0757 22.8262L84.9153 13.8378C84.8312 13.723 84.7418 13.6238 84.6472 13.5403C84.5631 13.4568 84.4632 13.3942 84.3475 13.3524C84.2424 13.3002 84.111 13.2637 83.9532 13.2428C83.806 13.2219 83.622 13.2115 83.4012 13.2115H80.4834V23.2334H78.8589V1.07553H84.5683C87.1339 1.07553 89.0528 1.57141 90.325 2.56316C91.6078 3.54448 92.2492 4.99035 92.2492 6.90078C92.2492 7.74638 92.102 8.5189 91.8076 9.21835C91.5132 9.9178 91.0873 10.5337 90.5301 11.0661C89.9833 11.5881 89.3156 12.0161 88.5271 12.3502C87.749 12.6843 86.871 12.9087 85.8932 13.0235C86.1455 13.1801 86.3716 13.3889 86.5714 13.6499L94.2522 23.2334Z" fill="url(#paint5_linear)"/>
<path d="M130.368 1.07553V23.2334H129.611C129.475 23.2334 129.359 23.2125 129.264 23.1707C129.18 23.1186 129.096 23.035 129.012 22.9202L114.518 3.69063C114.549 4.00381 114.565 4.30134 114.565 4.58321V23.2334H113.145V1.07553H113.95C114.097 1.07553 114.207 1.09641 114.281 1.13817C114.365 1.16949 114.455 1.24778 114.549 1.37306L129.012 20.5557C128.98 20.2425 128.965 19.9449 128.965 19.6631V1.07553H130.368Z" fill="url(#paint6_linear)"/>
<path d="M130.233 11.4658C130.233 13.1779 130.491 14.7177 131.006 16.0853C131.521 17.4529 132.247 18.6169 133.183 19.5773C134.118 20.5377 135.243 21.2737 136.558 21.7852C137.862 22.2968 139.302 22.5526 140.879 22.5526H149.033V0.394694H140.879C139.302 0.394694 137.862 0.650462 136.558 1.162C135.243 1.67353 134.118 2.40952 133.183 3.36995C132.247 4.33039 131.521 5.49439 131.006 6.86197C130.491 8.22954 130.233 9.76415 130.233 11.4658ZM131.905 11.4658C131.905 9.92074 132.121 8.54273 132.552 7.33175C132.983 6.12076 133.593 5.09769 134.381 4.26253C135.17 3.42737 136.116 2.79056 137.22 2.3521C138.324 1.91364 139.544 1.69441 140.879 1.69441H147.409V21.2528H140.879C139.544 21.2528 138.324 21.0336 137.22 20.5951C136.116 20.1567 135.17 19.5199 134.381 18.6847C133.593 17.8496 132.983 16.8265 132.552 15.6155C132.121 14.4045 131.905 13.0213 131.905 11.4658Z" fill="url(#paint7_linear)"/>
<path d="M24.2536 2.40657V11.7238H34.4264V13.0549H24.2536V23.2334H22.6291V1.07553H36.0036V2.40657H24.2536Z" fill="url(#paint8_linear)"/>
<path d="M38.8484 3.96547L40.095 3.39777L49.4209 23.585L48.1743 24.1527L38.8484 3.96547Z" fill="url(#paint9_linear)"/>
<path d="M104.238 3.12269L105.485 2.55499L114.811 22.7422L113.564 23.3099L104.238 3.12269Z" fill="url(#paint10_linear)"/>
<path d="M39.4548 2.9702L40.6337 3.66592L28.4948 23.9436L27.3158 23.2479L39.4548 2.9702Z" fill="url(#paint11_linear)"/>
<path d="M104.845 2.12743L106.024 2.82315L93.8848 23.1008L92.7059 22.4051L104.845 2.12743Z" fill="url(#paint12_linear)"/>
<path d="M78.7979 21.6784C78.7979 23.3904 78.5403 24.9459 78.0251 26.3448C77.5099 27.7333 76.7844 28.9234 75.8486 29.9151C74.9128 30.8964 73.7878 31.6585 72.4734 32.2014C71.1696 32.7338 69.7291 33 68.152 33C66.5748 33 65.1343 32.7338 63.8305 32.2014C62.5267 31.6585 61.4069 30.8964 60.4711 29.9151C59.5353 28.9234 58.8098 27.7333 58.2946 26.3448C57.7794 24.9459 57.5218 23.3904 57.5218 21.6784C57.5218 19.9767 57.7794 18.4317 58.2946 17.0432C58.8098 15.6443 59.5353 14.4542 60.4711 13.4729C61.4069 12.4811 62.5267 11.7138 63.8305 11.171C65.1343 10.6281 66.5748 10.3567 68.152 10.3567C69.7291 10.3567 71.1696 10.6281 72.4734 11.171C73.7878 11.7034 74.9128 12.4655 75.8486 13.4572C76.7844 14.449 77.5099 15.6443 78.0251 17.0432C78.5403 18.4317 78.7979 19.9767 78.7979 21.6784ZM77.1261 21.6784C77.1261 20.1333 76.9106 18.7449 76.4795 17.513C76.0484 16.2811 75.4385 15.2372 74.6499 14.3811C73.8613 13.5251 72.915 12.8726 71.811 12.4237C70.707 11.9644 69.4873 11.7347 68.152 11.7347C66.8271 11.7347 65.6127 11.9644 64.5087 12.4237C63.4047 12.8726 62.4531 13.5251 61.654 14.3811C60.8654 15.2372 60.2503 16.2811 59.8087 17.513C59.3776 18.7449 59.162 20.1333 59.162 21.6784C59.162 23.2338 59.3776 24.6275 59.8087 25.8594C60.2503 27.0808 60.8654 28.1195 61.654 28.9756C62.4531 29.8316 63.4047 30.4841 64.5087 30.933C65.6127 31.3819 66.8271 31.6063 68.152 31.6063C69.4873 31.6063 70.707 31.3819 71.811 30.933C72.915 30.4841 73.8613 29.8316 74.6499 28.9756C75.4385 28.1195 76.0484 27.0808 76.4795 25.8594C76.9106 24.6275 77.1261 23.2338 77.1261 21.6784Z" fill="url(#paint13_linear)"/>
<path d="M170 16.9125C170 18.6246 169.742 20.1801 169.227 21.579C168.712 22.9674 167.986 24.1575 167.051 25.1493C166.115 26.1306 164.99 26.8927 163.676 27.4355C162.372 27.9679 160.931 28.2341 159.354 28.2341C157.777 28.2341 156.336 27.9679 155.033 27.4355C153.729 26.8927 152.609 26.1306 151.673 25.1493C150.737 24.1575 150.012 22.9674 149.497 21.579C148.981 20.1801 148.724 18.6246 148.724 16.9125C148.724 15.2109 148.981 13.6658 149.497 12.2774C150.012 10.8785 150.737 9.68835 151.673 8.70704C152.609 7.71529 153.729 6.94798 155.033 6.40513C156.336 5.86227 157.777 5.59085 159.354 5.59085C160.931 5.59085 162.372 5.86227 163.676 6.40513C164.99 6.93754 166.115 7.69963 167.051 8.69138C167.986 9.68313 168.712 10.8785 169.227 12.2774C169.742 13.6658 170 15.2109 170 16.9125ZM168.328 16.9125C168.328 15.3674 168.113 13.979 167.682 12.7471C167.25 11.5153 166.641 10.4713 165.852 9.61528C165.063 8.75924 164.117 8.10677 163.013 7.65787C161.909 7.19853 160.689 6.96886 159.354 6.96886C158.029 6.96886 156.815 7.19853 155.711 7.65787C154.607 8.10677 153.655 8.75924 152.856 9.61528C152.067 10.4713 151.452 11.5153 151.011 12.7471C150.58 13.979 150.364 15.3674 150.364 16.9125C150.364 18.468 150.58 19.8617 151.011 21.0935C151.452 22.3149 152.067 23.3537 152.856 24.2097C153.655 25.0657 154.607 25.7182 155.711 26.1671C156.815 26.616 158.029 26.8405 159.354 26.8405C160.689 26.8405 161.909 26.616 163.013 26.1671C164.117 25.7182 165.063 25.0657 165.852 24.2097C166.641 23.3537 167.25 22.3149 167.682 21.0935C168.113 19.8617 168.328 18.468 168.328 16.9125Z" fill="url(#paint14_linear)"/>
<defs>
<linearGradient id="paint0_linear" x1="0.132341" y1="13.7017" x2="170.193" y2="16.4643" gradientUnits="userSpaceOnUse">
<stop stop-color="#10FBFF"/>
<stop offset="0.0885417" stop-color="#25EEFF"/>
<stop offset="0.900968" stop-color="#9DA5FF"/>
<stop offset="0.9999" stop-color="#B497FF"/>
<stop offset="1" stop-color="#FE69FF"/>
</linearGradient>
<linearGradient id="paint1_linear" x1="0.132341" y1="13.7017" x2="170.193" y2="16.4643" gradientUnits="userSpaceOnUse">
<stop stop-color="#10FBFF"/>
<stop offset="0.0885417" stop-color="#25EEFF"/>
<stop offset="0.900968" stop-color="#9DA5FF"/>
<stop offset="0.9999" stop-color="#B497FF"/>
<stop offset="1" stop-color="#FE69FF"/>
</linearGradient>
<linearGradient id="paint2_linear" x1="0.132341" y1="13.7017" x2="170.193" y2="16.4643" gradientUnits="userSpaceOnUse">
<stop stop-color="#10FBFF"/>
<stop offset="0.0885417" stop-color="#25EEFF"/>
<stop offset="0.900968" stop-color="#9DA5FF"/>
<stop offset="0.9999" stop-color="#B497FF"/>
<stop offset="1" stop-color="#FE69FF"/>
</linearGradient>
<linearGradient id="paint3_linear" x1="0.132341" y1="13.7017" x2="170.193" y2="16.4643" gradientUnits="userSpaceOnUse">
<stop stop-color="#10FBFF"/>
<stop offset="0.0885417" stop-color="#25EEFF"/>
<stop offset="0.900968" stop-color="#9DA5FF"/>
<stop offset="0.9999" stop-color="#B497FF"/>
<stop offset="1" stop-color="#FE69FF"/>
</linearGradient>
<linearGradient id="paint4_linear" x1="0.132341" y1="13.7017" x2="170.193" y2="16.4643" gradientUnits="userSpaceOnUse">
<stop stop-color="#10FBFF"/>
<stop offset="0.0885417" stop-color="#25EEFF"/>
<stop offset="0.900968" stop-color="#9DA5FF"/>
<stop offset="0.9999" stop-color="#B497FF"/>
<stop offset="1" stop-color="#FE69FF"/>
</linearGradient>
<linearGradient id="paint5_linear" x1="0.132341" y1="13.7017" x2="170.193" y2="16.4643" gradientUnits="userSpaceOnUse">
<stop stop-color="#10FBFF"/>
<stop offset="0.0885417" stop-color="#25EEFF"/>
<stop offset="0.900968" stop-color="#9DA5FF"/>
<stop offset="0.9999" stop-color="#B497FF"/>
<stop offset="1" stop-color="#FE69FF"/>
</linearGradient>
<linearGradient id="paint6_linear" x1="0.132341" y1="13.7017" x2="170.193" y2="16.4643" gradientUnits="userSpaceOnUse">
<stop stop-color="#10FBFF"/>
<stop offset="0.0885417" stop-color="#25EEFF"/>
<stop offset="0.900968" stop-color="#9DA5FF"/>
<stop offset="0.9999" stop-color="#B497FF"/>
<stop offset="1" stop-color="#FE69FF"/>
</linearGradient>
<linearGradient id="paint7_linear" x1="0.132341" y1="13.7017" x2="170.193" y2="16.4643" gradientUnits="userSpaceOnUse">
<stop stop-color="#10FBFF"/>
<stop offset="0.0885417" stop-color="#25EEFF"/>
<stop offset="0.900968" stop-color="#9DA5FF"/>
<stop offset="0.9999" stop-color="#B497FF"/>
<stop offset="1" stop-color="#FE69FF"/>
</linearGradient>
<linearGradient id="paint8_linear" x1="0.132341" y1="13.7017" x2="170.193" y2="16.4643" gradientUnits="userSpaceOnUse">
<stop stop-color="#10FBFF"/>
<stop offset="0.0885417" stop-color="#25EEFF"/>
<stop offset="0.900968" stop-color="#9DA5FF"/>
<stop offset="0.9999" stop-color="#B497FF"/>
<stop offset="1" stop-color="#FE69FF"/>
</linearGradient>
<linearGradient id="paint9_linear" x1="0.132341" y1="13.7017" x2="170.193" y2="16.4643" gradientUnits="userSpaceOnUse">
<stop stop-color="#10FBFF"/>
<stop offset="0.0885417" stop-color="#25EEFF"/>
<stop offset="0.900968" stop-color="#9DA5FF"/>
<stop offset="0.9999" stop-color="#B497FF"/>
<stop offset="1" stop-color="#FE69FF"/>
</linearGradient>
<linearGradient id="paint10_linear" x1="0.132341" y1="13.7017" x2="170.193" y2="16.4643" gradientUnits="userSpaceOnUse">
<stop stop-color="#10FBFF"/>
<stop offset="0.0885417" stop-color="#25EEFF"/>
<stop offset="0.900968" stop-color="#9DA5FF"/>
<stop offset="0.9999" stop-color="#B497FF"/>
<stop offset="1" stop-color="#FE69FF"/>
</linearGradient>
<linearGradient id="paint11_linear" x1="0.132341" y1="13.7017" x2="170.193" y2="16.4643" gradientUnits="userSpaceOnUse">
<stop stop-color="#10FBFF"/>
<stop offset="0.0885417" stop-color="#25EEFF"/>
<stop offset="0.900968" stop-color="#9DA5FF"/>
<stop offset="0.9999" stop-color="#B497FF"/>
<stop offset="1" stop-color="#FE69FF"/>
</linearGradient>
<linearGradient id="paint12_linear" x1="0.132341" y1="13.7017" x2="170.193" y2="16.4643" gradientUnits="userSpaceOnUse">
<stop stop-color="#10FBFF"/>
<stop offset="0.0885417" stop-color="#25EEFF"/>
<stop offset="0.900968" stop-color="#9DA5FF"/>
<stop offset="0.9999" stop-color="#B497FF"/>
<stop offset="1" stop-color="#FE69FF"/>
</linearGradient>
<linearGradient id="paint13_linear" x1="0.132341" y1="13.7017" x2="170.193" y2="16.4643" gradientUnits="userSpaceOnUse">
<stop stop-color="#10FBFF"/>
<stop offset="0.0885417" stop-color="#25EEFF"/>
<stop offset="0.900968" stop-color="#9DA5FF"/>
<stop offset="0.9999" stop-color="#B497FF"/>
<stop offset="1" stop-color="#FE69FF"/>
</linearGradient>
<linearGradient id="paint14_linear" x1="0.132341" y1="13.7017" x2="170.193" y2="16.4643" gradientUnits="userSpaceOnUse">
<stop stop-color="#10FBFF"/>
<stop offset="0.0885417" stop-color="#25EEFF"/>
<stop offset="0.900968" stop-color="#9DA5FF"/>
<stop offset="0.9999" stop-color="#B497FF"/>
<stop offset="1" stop-color="#FE69FF"/>
</linearGradient>
</defs>
</svg>
